<svg width="40" height="40" viewBox="0 0 40 40" fill="none" xmlns="http://www.w3.org/2000/svg">
<rect width="40" height="40" fill="#3A4670"/>
<path d="M20.4083 9.7959C16.1176 9.7959 12.626 13.3917 12.626 17.8126C12.626 24.0941 19.6768 30.58 19.9768 30.8524C20.1005 30.9647 20.2544 31.0204 20.4083 31.0204C20.5622 31.0204 20.7161 30.9647 20.8398 30.8532C21.1398 30.58 28.1906 24.0941 28.1906 17.8126C28.1906 13.3917 24.6989 9.7959 20.4083 9.7959ZM20.4083 22.1769C18.0243 22.1769 16.0848 20.1932 16.0848 17.7551C16.0848 15.3169 18.0243 13.3333 20.4083 13.3333C22.7923 13.3333 24.7318 15.3169 24.7318 17.7551C24.7318 20.1932 22.7923 22.1769 20.4083 22.1769Z" fill="#F2F2F2"/>
</svg>
