<svg width="40" height="40" viewBox="0 0 40 40" fill="none" xmlns="http://www.w3.org/2000/svg">
<rect width="40" height="40" fill="#3A4670"/>
<path d="M25.8214 24.42C24.7998 24.1508 23.8412 23.7276 22.9752 23.1648C22.5544 22.8833 21.9964 22.8678 21.6104 23.098L19.3561 24.0226C17.502 22.3027 16.4848 20.559 15.9133 18.118L17.7786 16.6463C18.218 16.3901 18.4768 15.9139 18.4534 15.3978C18.3893 14.3602 18.4928 13.3164 18.7615 12.2965C18.9514 11.5756 18.5193 10.8344 17.7985 10.6445L14.7475 9.84066C14.0267 9.65073 13.2855 10.0828 13.0955 10.8037C10.8796 19.2146 15.9201 27.8612 24.3309 30.0772C25.0518 30.2671 25.793 29.835 25.983 29.1141L26.7845 26.072C26.9744 25.3511 26.5423 24.6099 25.8214 24.42Z" fill="#F2F2F2"/>
</svg>
