<svg width="40" height="40" viewBox="0 0 40 40" fill="none" xmlns="http://www.w3.org/2000/svg">
<rect width="40" height="40" fill="#3A4670"/>
<g clip-path="url(#clip0)">
<path d="M23.8652 20.517L31.0205 25.0404V15.8025L23.8652 20.517Z" fill="#F2F2F2"/>
<path d="M9.7959 15.8025V25.0404L16.9512 20.517L9.7959 15.8025Z" fill="#F2F2F2"/>
<path d="M29.6941 13.1123H11.1227C10.4607 13.1123 9.93543 13.6058 9.83594 14.2412L20.4084 21.2068L30.9808 14.2412C30.8813 13.6058 30.356 13.1123 29.6941 13.1123Z" fill="#F2F2F2"/>
<path d="M22.6505 21.3182L20.7735 22.5545C20.662 22.6275 20.536 22.6633 20.4087 22.6633C20.2813 22.6633 20.1553 22.6275 20.0439 22.5545L18.1668 21.3169L9.83887 26.5845C9.94101 27.2146 10.4637 27.7041 11.1229 27.7041H29.6944C30.3537 27.7041 30.8763 27.2146 30.9785 26.5845L22.6505 21.3182Z" fill="#F2F2F2"/>
</g>
<defs>
<clipPath id="clip0">
<rect width="21.2245" height="21.2245" fill="white" transform="translate(9.7959 9.7959)"/>
</clipPath>
</defs>
</svg>
