<svg width="40" height="40" viewBox="0 0 40 40" fill="none" xmlns="http://www.w3.org/2000/svg">
<rect width="40" height="40" fill="#3A4670"/>
<path d="M27.125 11H22.3677C21.4662 11 20.618 11.351 19.9805 11.9885L11.6397 20.33C11.2333 20.7365 11 21.299 11 21.8765C11 22.451 11.2333 23.0135 11.6397 23.42L16.5807 28.361C16.9865 28.7667 17.549 29 18.1265 29C18.701 29 19.2635 28.7667 19.67 28.3603L28.0115 20.0188C28.649 19.382 29 18.5337 29 17.6323V12.875C29 11.8408 28.1592 11 27.125 11ZM24.875 17C23.8407 17 23 16.1592 23 15.125C23 14.0908 23.8408 13.25 24.875 13.25C25.9092 13.25 26.75 14.0908 26.75 15.125C26.75 16.1593 25.9092 17 24.875 17Z" fill="white"/>
</svg>
