<svg width="13" height="17" viewBox="0 0 13 17" fill="none" xmlns="http://www.w3.org/2000/svg">
<path d="M6.5 0C2.91633 0 0 2.88008 0 6.42104C0 11.4523 5.889 16.6472 6.13961 16.8654C6.24289 16.9554 6.37144 17 6.5 17C6.62856 17 6.75711 16.9554 6.86039 16.8661C7.111 16.6472 13 11.4523 13 6.42104C13 2.88008 10.0837 0 6.5 0ZM6.5 9.91667C4.50883 9.91667 2.88889 8.32788 2.88889 6.375C2.88889 4.42212 4.50883 2.83333 6.5 2.83333C8.49117 2.83333 10.1111 4.42212 10.1111 6.375C10.1111 8.32788 8.49117 9.91667 6.5 9.91667Z" fill="#202020"/>
</svg>
