<svg width="17" height="17" viewBox="0 0 17 17" fill="none" xmlns="http://www.w3.org/2000/svg">
<path d="M15.2292 0H10.7362C9.88477 0 9.08364 0.3315 8.48157 0.933572L0.604197 8.81168C0.220303 9.19557 0 9.72682 0 10.2723C0 10.8148 0.220303 11.3461 0.604197 11.73L5.2707 16.3965C5.65393 16.7797 6.18518 17 6.73057 17C7.27314 17 7.80439 16.7797 8.18832 16.3958L16.0664 8.51773C16.6685 7.91632 17 7.1152 17 6.2638V1.77082C17 0.794053 16.2059 0 15.2292 0ZM13.1042 5.66668C12.1274 5.66668 11.3334 4.87262 11.3334 3.89586C11.3334 2.91905 12.1274 2.12503 13.1042 2.12503C14.0809 2.12503 14.875 2.91905 14.875 3.89582C14.875 4.87262 14.0809 5.66668 13.1042 5.66668Z" fill="#202020"/>
</svg>
