<svg width="4" height="17" viewBox="0 0 4 17" fill="none" xmlns="http://www.w3.org/2000/svg">
<path d="M3.6992 9.71647e-08L0.300379 0C0.134686 -9.43666e-09 -9.29523e-09 0.136735 0 0.304949L1.87622e-07 1.29438H0.725665C0.891358 1.29438 1.02604 1.43112 1.02604 1.59933C1.02561 1.68344 0.992068 1.75978 0.93768 1.815C0.883292 1.87021 0.808113 1.90428 0.725247 1.9047L2.01254e-05 1.90426L1.98072e-05 3.01965H1.57538C1.74107 3.01965 1.87576 3.15638 1.87576 3.3246C1.87532 3.40871 1.84178 3.48505 1.7874 3.54026C1.73301 3.59548 1.65783 3.62955 1.57496 3.62997L2.02967e-05 3.62955L2.00545e-05 4.74494H0.725685C0.891378 4.74494 1.02606 4.88167 1.02606 5.04989C1.02563 5.13399 0.992088 5.21034 0.9377 5.26555C0.883312 5.32077 0.808133 5.35484 0.725267 5.35526L3.99923e-05 5.35482L4.0054e-05 6.4702H1.5754C1.74109 6.4702 1.87578 6.60694 1.87578 6.77515C1.87534 6.85926 1.8418 6.9356 1.78742 6.99082C1.73303 7.04604 1.65785 7.0801 1.57498 7.08053L4.03915e-05 7.0801L4.04532e-05 8.19549H0.725705C0.891398 8.19549 1.02608 8.33223 1.02608 8.50044C1.02565 8.58455 0.992109 8.66089 0.937721 8.71611C0.883333 8.77132 0.808153 8.80539 0.725287 8.80582L6.02391e-05 8.80537L6.03007e-05 9.92076L1.57542 9.92076C1.74111 9.92076 1.8758 10.0575 1.8758 10.2257C1.87536 10.3098 1.84182 10.3862 1.78744 10.4414C1.73305 10.4966 1.65787 10.5307 1.575 10.5311L6.00305e-05 10.5307L6.02441e-05 11.646H0.725725C0.891419 11.646 1.0261 11.7828 1.0261 11.951C1.02567 12.0351 0.992129 12.1114 0.937741 12.1667C0.883353 12.2219 0.808174 12.2559 0.725307 12.2564L8.04858e-05 12.2559L8.02435e-05 13.3713H1.57544C1.74113 13.3713 1.87582 13.5081 1.87582 13.6763C1.87538 13.7604 1.84184 13.8367 1.78746 13.8919C1.73307 13.9471 1.65789 13.9812 1.57502 13.9816L8.04292e-05 13.9812L8.01869e-05 15.0966H0.725745C0.891439 15.0966 1.02612 15.2333 1.02612 15.4016C1.02569 15.4857 0.992149 15.562 0.937761 15.6172C0.883373 15.6724 0.808193 15.7065 0.725327 15.7069L0.000100277 15.7065L9.05689e-07 16.695C9.14984e-07 16.8633 0.134687 17 0.30038 17H3.6992C3.78205 17.0004 3.85725 16.9664 3.91164 16.9111C3.96602 16.8559 3.99958 16.7796 4 16.6955L4 0.305374C3.99958 0.136735 3.86533 0.00044491 3.6992 9.71647e-08Z" fill="#202020"/>
</svg>
