<svg width="17" height="4" viewBox="0 0 17 4" fill="none" xmlns="http://www.w3.org/2000/svg">
<path d="M17 3.6992L17 0.300379C17 0.134686 16.8633 -1.52721e-08 16.6951 -1.33298e-08L15.7056 1.31042e-07L15.7056 0.725665C15.7056 0.891358 15.5689 1.02604 15.4007 1.02604C15.3166 1.02561 15.2402 0.992068 15.185 0.93768C15.1298 0.883292 15.0957 0.808113 15.0953 0.725247L15.0957 2.00422e-05L13.9804 1.96752e-05L13.9804 1.57538C13.9804 1.74107 13.8436 1.87576 13.6754 1.87576C13.5913 1.87532 13.515 1.84178 13.4597 1.7874C13.4045 1.73301 13.3705 1.65783 13.37 1.57496L13.3705 2.01381e-05L12.2551 1.98471e-05L12.2551 0.725685C12.2551 0.891378 12.1183 1.02606 11.9501 1.02606C11.866 1.02563 11.7897 0.992088 11.7344 0.9377C11.6792 0.883312 11.6452 0.808133 11.6447 0.725266L11.6452 3.97583e-05L10.5298 3.97711e-05L10.5298 1.5754C10.5298 1.74109 10.3931 1.87578 10.2248 1.87578C10.1407 1.87534 10.0644 1.8418 10.0092 1.78742C9.95396 1.73303 9.9199 1.65785 9.91947 1.57498L9.9199 4.00821e-05L8.80451 4.00949e-05L8.80451 0.725705C8.80451 0.891398 8.66777 1.02608 8.49956 1.02608C8.41545 1.02565 8.33911 0.992108 8.28389 0.93772C8.22868 0.883332 8.19461 0.808153 8.19418 0.725287L8.19463 5.98542e-05L7.07924 5.9867e-05L7.07924 1.57542C7.07924 1.74111 6.9425 1.8758 6.77429 1.8758C6.69018 1.87536 6.61384 1.84182 6.55862 1.78744C6.50341 1.73305 6.46934 1.65787 6.46892 1.575L6.46934 5.95702e-05L5.35395 5.9735e-05L5.35395 0.725725C5.35395 0.891418 5.21722 1.0261 5.049 1.0261C4.96489 1.02567 4.88855 0.992128 4.83334 0.93774C4.77812 0.883352 4.74405 0.808173 4.74363 0.725307L4.74407 7.99501e-05L3.62868 7.9659e-05L3.62868 1.57544C3.62868 1.74113 3.49195 1.87582 3.32373 1.87582C3.23962 1.87538 3.16328 1.84184 3.10807 1.78746C3.05285 1.73307 3.01878 1.65789 3.01836 1.57502L3.01878 7.9818e-05L1.90339 7.9527e-05L1.90339 0.725745C1.90339 0.891438 1.76666 1.02612 1.59844 1.02612C1.51434 1.02568 1.43799 0.992148 1.38278 0.937761C1.32756 0.883372 1.2935 0.808193 1.29307 0.725326L1.29352 9.95901e-05L0.304953 1.75925e-07C0.13674 1.77868e-07 5.71616e-06 0.134686 5.70892e-06 0.300379L5.56035e-06 3.6992C-0.000440763 3.78205 0.0336455 3.85725 0.0888613 3.91164C0.144077 3.96602 0.220402 3.99958 0.304529 4L16.6946 4C16.8633 3.99958 16.9996 3.86533 17 3.6992Z" fill="#202020"/>
</svg>
