<svg width="83" height="14" viewBox="0 0 83 14" fill="none" xmlns="http://www.w3.org/2000/svg">
<path d="M0 12.7095V12.4176L1.51845 11.6698V1.71115L0 0.963336V0.671509H5.2061V0.963336L3.77805 1.71115V5.99739H9.2553V1.71115L7.82723 0.963336V0.671509H13.0153V0.963336L11.533 1.71115V11.6698L13.0153 12.4176V12.7095H7.82723V12.4176L9.2553 11.6698V7.00055H3.77805V11.6698L5.2061 12.4176V12.7095H0ZM22.9427 12.7095V12.4176L24.4431 11.6698V1.71115L22.9427 0.963336V0.671509H28.2211V0.963336L26.7207 1.71115V11.6698L28.2211 12.4176V12.7095H22.9427ZM40.4098 12.7095V12.4176L42.2897 11.6698V1.67467H39.5601L38.2044 4.53824H37.9152V0.671509H48.942V4.53824H48.6528L47.297 1.67467H44.5674V11.6698L46.4293 12.4176V12.7095H40.4098ZM58.6393 12.7095V12.4176L60.1397 11.6698V1.71115L58.6393 0.963336V0.671509H63.9177V0.963336L62.4174 1.71115V11.6698L63.9177 12.4176V12.7095H58.6393ZM78.4424 13.1836C77.6716 13.1836 76.9962 13.1106 76.4178 12.9647C75.8516 12.8064 75.2855 12.5817 74.7185 12.2898L74.5378 9.24388H74.8632L75.9658 11.3414C76.7136 11.9615 77.4966 12.2716 78.3158 12.2716C78.9912 12.2716 79.5335 12.1075 79.9427 11.7791C80.3527 11.4384 80.5574 10.9584 80.5574 10.3382C80.5574 9.87646 80.4489 9.50504 80.2319 9.22564C80.0273 8.93381 79.7077 8.67266 79.2739 8.44135C78.84 8.19844 78.2739 7.91822 77.5747 7.60234C76.7316 7.18889 76.0809 6.7451 75.6224 6.27088C75.1647 5.78447 74.9355 5.13398 74.9355 4.31927C74.9355 3.85723 75.0505 3.41335 75.2789 2.9878C75.5082 2.56224 75.8097 2.18527 76.1828 1.85696C76.569 1.52865 76.9962 1.26725 77.4662 1.07267C77.9485 0.878089 78.4424 0.780843 78.9485 0.780843C79.5516 0.780843 80.112 0.8538 80.6296 0.999714C81.1604 1.13344 81.6666 1.32802 82.1481 1.58337L82.3288 4.50166H82.0216L80.9189 2.49534C80.5697 2.2278 80.2443 2.02716 79.9427 1.89344C79.642 1.75971 79.2985 1.69281 78.9124 1.69281C78.4062 1.69281 77.9847 1.86301 77.647 2.20351C77.3216 2.544 77.1589 2.97561 77.1589 3.4985C77.1589 4.04568 77.3397 4.48947 77.7012 4.82997C78.0627 5.15827 78.6659 5.52306 79.5089 5.92432C80.2443 6.26482 80.8466 6.59918 81.3166 6.92749C81.7866 7.2558 82.1366 7.62639 82.365 8.04009C82.5943 8.45379 82.7085 8.96449 82.7085 9.57219C82.7085 10.1558 82.5819 10.6724 82.3288 11.1225C82.0881 11.5603 81.757 11.9375 81.3346 12.2534C80.9254 12.5576 80.467 12.7881 79.9608 12.9465C79.4547 13.1048 78.9485 13.1836 78.4424 13.1836Z" fill="#3A4670"/>
</svg>
