<svg width="359" height="39" viewBox="0 0 359 39" fill="none" xmlns="http://www.w3.org/2000/svg">
<path d="M0 38.2308V37.4349L4.09192 35.3954L5.12723 8.2354L0.838104 6.19592V5.40002H11.7828L22.2837 29.9734L32.7354 5.40002H43.2363V6.19592L39.0458 7.8872L39.8839 35.3954L43.4828 37.4349V38.2308H30.0239V37.4349L33.8693 35.4451L33.3763 11.4687L21.9386 38.4795H19.375L7.93735 11.7175L7.29645 35.4451L11.487 37.4349V38.2308H0ZM53.4646 38.7282C51.8869 38.7282 50.5394 38.2474 49.4219 37.2857C48.3373 36.324 47.8115 34.9643 47.8443 33.2067C47.8772 31.4822 48.4524 30.0728 49.5698 28.9785C50.6873 27.851 52.7579 26.9224 55.7817 26.1928L60.4159 25.0487V21.7657C60.4159 20.5387 60.005 19.5438 59.1834 18.781C58.3617 17.9851 57.3757 17.5872 56.2254 17.5872C55.075 17.5872 54.2698 17.8691 53.8097 18.4328C53.3495 18.9634 53.1194 19.7428 53.1194 20.7708V22.7108L52.8729 22.9098H49.9149C49.4219 22.9098 49.0768 22.8103 48.8796 22.6113C48.6824 22.4123 48.5838 22.0144 48.5838 21.4175C48.5838 19.8588 49.5698 18.4826 51.5418 17.2887C52.5936 16.6255 53.6289 16.1115 54.6478 15.7467C55.6995 15.3487 56.8005 15.1498 57.9509 15.1498C59.397 15.1498 60.7445 15.3487 61.9935 15.7467C63.2424 16.1446 64.2449 16.7747 65.0008 17.6369C65.7567 18.4992 66.1347 19.6598 66.1347 21.119V34.699C66.5948 35.2296 67.4329 35.4949 68.649 35.4949H70.2759L70.4238 35.6441V36.1416C70.0294 36.8048 69.4214 37.4017 68.5997 37.9323C67.778 38.4629 66.7263 38.7282 65.4445 38.7282C64.1956 38.7282 63.1767 38.4464 62.3879 37.8826C61.632 37.2857 61.0896 36.4898 60.761 35.4949H60.4159C59.5613 36.4234 58.5425 37.2028 57.3593 37.8328C56.1761 38.4298 54.8778 38.7282 53.4646 38.7282ZM53.2673 31.9631C53.2673 33.0243 53.5631 33.8202 54.1548 34.3508C54.7792 34.8482 55.6338 35.0969 56.7184 35.0969C57.3428 35.0969 57.9344 35.0306 58.4932 34.898C59.0848 34.7653 59.7257 34.5498 60.4159 34.2513V26.939C58.3781 27.3369 56.8498 27.7846 55.831 28.2821C54.8121 28.7463 54.1219 29.2769 53.7604 29.8739C53.4317 30.4708 53.2673 31.1672 53.2673 31.9631ZM72.7856 38.2308V37.4349L75.9902 35.8431V21.0195L72.9335 18.5821V18.0846L80.723 15.1498H81.1667L81.6104 19.5272H81.8569C82.6457 18.267 83.3523 17.3219 83.9768 16.6918C84.6013 16.0617 85.1929 15.6472 85.7516 15.4482C86.3432 15.2493 86.9348 15.1498 87.5264 15.1498C87.7893 15.1498 88.0851 15.1995 88.4138 15.299C88.7425 15.3985 89.0383 15.498 89.3012 15.5975C90.2872 15.9291 90.7802 16.3934 90.7802 16.9903C90.7802 17.2556 90.7309 17.5375 90.6323 17.8359L89.4984 20.7708H89.1533L87.625 20.1739C87.1649 20.0081 86.754 19.9086 86.3925 19.8754C86.0638 19.8091 85.6859 19.7759 85.2586 19.7759C83.8782 19.7759 82.6786 20.4557 81.6597 21.8154V35.8431L85.4558 37.4349V38.2308H72.7856ZM99.1161 9.8272C98.1629 9.8272 97.3741 9.51216 96.7497 8.88207C96.1252 8.21882 95.813 7.40634 95.813 6.44463C95.813 5.48292 96.1252 4.68703 96.7497 4.05694C97.3741 3.42686 98.1629 3.11181 99.1161 3.11181C100.069 3.11181 100.858 3.42686 101.482 4.05694C102.14 4.68703 102.468 5.48292 102.468 6.44463C102.468 7.40634 102.14 8.21882 101.482 8.88207C100.858 9.51216 100.069 9.8272 99.1161 9.8272ZM93.2 38.2308V37.4349L96.4046 35.8431V20.8205L93.3479 18.4328V17.8857L101.63 15.1498H102.123V35.8431L105.131 37.4349V38.2308H93.2ZM109.035 38.2308V37.4349L112.24 35.8431V20.8205L109.183 18.5821V18.0846L116.973 15.1498H117.466L117.909 18.8308H118.156C119.372 17.6369 120.539 16.725 121.656 16.0949C122.806 15.4648 124.105 15.1498 125.551 15.1498C127.523 15.1498 129.133 15.6638 130.382 16.6918C131.664 17.7199 132.305 19.2122 132.305 21.1687V35.8431L135.509 37.4349V38.2308H123.677V37.4349L126.586 35.8431V23.3077C126.586 22.0475 126.208 21.0858 125.452 20.4226C124.696 19.7262 123.71 19.378 122.494 19.378C121.738 19.378 120.933 19.5106 120.079 19.7759C119.224 20.0412 118.517 20.406 117.959 20.8703V35.8431L120.867 37.4349V38.2308H109.035ZM149.685 38.7282C146.398 38.7282 143.785 37.7499 141.846 35.7934C139.94 33.8368 138.987 31.2335 138.987 27.9836C138.987 25.4633 139.513 23.2414 140.564 21.318C141.616 19.3945 142.997 17.8857 144.706 16.7913C146.448 15.6969 148.37 15.1498 150.474 15.1498C153.103 15.1498 155.157 16.0617 156.636 17.8857C158.115 19.7096 158.871 22.2797 158.904 25.5959L158.707 25.8446H144.508C144.508 27.3369 144.771 28.7132 145.297 29.9734C145.823 31.2004 146.678 32.1952 147.861 32.958C149.044 33.6875 150.605 34.0523 152.544 34.0523C153.465 34.0523 154.451 33.9197 155.502 33.6544C156.554 33.3891 157.655 32.9414 158.805 32.3113H158.953V33.0077C158.165 34.6327 156.965 35.9923 155.354 37.0867C153.744 38.181 151.854 38.7282 149.685 38.7282ZM149.488 17.3882C148.173 17.3882 147.088 17.9354 146.234 19.0298C145.379 20.1241 144.837 21.6496 144.607 23.6062H154.122C153.826 21.318 153.284 19.7096 152.495 18.781C151.706 17.8525 150.704 17.3882 149.488 17.3882ZM171.486 38.7282C169.876 38.7282 168.495 38.579 167.345 38.2805C166.195 37.9821 165.044 37.551 163.894 36.9872V31.2667H164.584L166.26 33.9528C167.411 35.7768 169.087 36.6887 171.289 36.6887C172.571 36.6887 173.557 36.4234 174.247 35.8928C174.937 35.3291 175.282 34.5663 175.282 33.6046C175.282 32.7756 175.085 32.1289 174.691 31.6646C174.296 31.1672 173.672 30.7195 172.817 30.3216C171.996 29.9236 170.944 29.4428 169.662 28.879C167.887 28.1163 166.556 27.254 165.669 26.2923C164.781 25.2975 164.338 24.0207 164.338 22.4621C164.338 21.1024 164.683 19.8754 165.373 18.781C166.096 17.6535 167.049 16.7747 168.232 16.1446C169.449 15.4814 170.763 15.1498 172.177 15.1498C173.327 15.1498 174.428 15.2824 175.48 15.5477C176.531 15.813 177.583 16.211 178.635 16.7416V22.4621H177.895L176.318 20.0246C175.167 18.2007 173.787 17.2887 172.177 17.2887C171.158 17.2887 170.32 17.554 169.662 18.0846C169.038 18.5821 168.726 19.3116 168.726 20.2734C168.726 21.2351 169.071 21.9978 169.761 22.5616C170.484 23.1253 171.766 23.7886 173.606 24.5513C174.527 24.9824 175.447 25.4301 176.367 25.8944C177.287 26.3587 178.043 27.0219 178.635 27.8841C179.259 28.7463 179.572 29.9568 179.572 31.5154C179.572 33.0409 179.161 34.3508 178.339 35.4451C177.55 36.5063 176.531 37.3188 175.282 37.8826C174.033 38.4464 172.768 38.7282 171.486 38.7282ZM195.326 38.7282C192.04 38.7282 189.427 37.7499 187.488 35.7934C185.581 33.8368 184.628 31.2335 184.628 27.9836C184.628 25.4633 185.154 23.2414 186.206 21.318C187.257 19.3945 188.638 17.8857 190.347 16.7913C192.089 15.6969 194.012 15.1498 196.115 15.1498C198.744 15.1498 200.799 16.0617 202.278 17.8857C203.757 19.7096 204.513 22.2797 204.545 25.5959L204.348 25.8446H190.15C190.15 27.3369 190.413 28.7132 190.939 29.9734C191.464 31.2004 192.319 32.1952 193.502 32.958C194.685 33.6875 196.247 34.0523 198.186 34.0523C199.106 34.0523 200.092 33.9197 201.144 33.6544C202.195 33.3891 203.296 32.9414 204.447 32.3113H204.595V33.0077C203.806 34.6327 202.606 35.9923 200.996 37.0867C199.385 38.181 197.495 38.7282 195.326 38.7282ZM195.129 17.3882C193.814 17.3882 192.73 17.9354 191.875 19.0298C191.021 20.1241 190.478 21.6496 190.248 23.6062H199.763C199.467 21.318 198.925 19.7096 198.136 18.781C197.348 17.8525 196.345 17.3882 195.129 17.3882ZM208.747 38.2308V37.4349L211.951 35.8431V21.0195L208.895 18.5821V18.0846L216.684 15.1498H217.128L217.571 19.5272H217.818C218.607 18.267 219.313 17.3219 219.938 16.6918C220.562 16.0617 221.154 15.6472 221.713 15.4482C222.304 15.2493 222.896 15.1498 223.487 15.1498C223.75 15.1498 224.046 15.1995 224.375 15.299C224.703 15.3985 224.999 15.498 225.262 15.5975C226.248 15.9291 226.741 16.3934 226.741 16.9903C226.741 17.2556 226.692 17.5375 226.593 17.8359L225.459 20.7708H225.114L223.586 20.1739C223.126 20.0081 222.715 19.9086 222.353 19.8754C222.025 19.8091 221.647 19.7759 221.22 19.7759C219.839 19.7759 218.64 20.4557 217.621 21.8154V35.8431L221.417 37.4349V38.2308H208.747ZM237.986 38.2308L228.767 17.8857L225.611 16.4431V15.6472H238.627V16.4431L234.978 17.9354V18.1344L240.599 30.3713H240.796L245.775 18.3831V18.1344L242.472 16.4431V15.6472H252.135V16.4431L248.585 18.1841L239.514 38.2308H237.986ZM258.813 9.8272C257.859 9.8272 257.071 9.51216 256.446 8.88207C255.822 8.21882 255.51 7.40634 255.51 6.44463C255.51 5.48292 255.822 4.68703 256.446 4.05694C257.071 3.42686 257.859 3.11181 258.813 3.11181C259.766 3.11181 260.555 3.42686 261.179 4.05694C261.836 4.68703 262.165 5.48292 262.165 6.44463C262.165 7.40634 261.836 8.21882 261.179 8.88207C260.555 9.51216 259.766 9.8272 258.813 9.8272ZM252.897 38.2308V37.4349L256.101 35.8431V20.8205L253.044 18.4328V17.8857L261.327 15.1498H261.82V35.8431L264.827 37.4349V38.2308H252.897ZM279.478 38.7282C277.375 38.7282 275.534 38.2805 273.957 37.3852C272.379 36.4898 271.147 35.2462 270.259 33.6544C269.405 32.0294 268.978 30.1392 268.978 27.9836C268.978 25.4633 269.487 23.2414 270.506 21.318C271.525 19.3945 272.922 17.8857 274.696 16.7913C276.504 15.6969 278.575 15.1498 280.908 15.1498C282.354 15.1498 283.702 15.3819 284.951 15.8462C286.233 16.2773 287.186 16.8576 287.81 17.5872C288.336 18.2173 288.599 18.7147 288.599 19.0795C288.599 19.5438 288.385 19.9417 287.958 20.2734L285.838 22.1139H285.493L283.768 19.7759C283.209 19.0132 282.617 18.4163 281.993 17.9851C281.368 17.554 280.563 17.3385 279.577 17.3385C277.934 17.3385 276.668 18.0846 275.781 19.5769C274.926 21.0693 274.499 23.0922 274.499 25.6457C274.499 27.138 274.746 28.5308 275.239 29.8241C275.765 31.0843 276.586 32.1123 277.704 32.9082C278.854 33.671 280.366 34.0523 282.239 34.0523C283.16 34.0523 284.146 33.9197 285.197 33.6544C286.249 33.3891 287.366 32.9414 288.55 32.3113H288.698V33.0077C287.909 34.5995 286.709 35.9592 285.099 37.0867C283.521 38.181 281.648 38.7282 279.478 38.7282ZM303.267 38.7282C299.98 38.7282 297.367 37.7499 295.428 35.7934C293.522 33.8368 292.569 31.2335 292.569 27.9836C292.569 25.4633 293.094 23.2414 294.146 21.318C295.198 19.3945 296.578 17.8857 298.287 16.7913C300.029 15.6969 301.952 15.1498 304.055 15.1498C306.685 15.1498 308.739 16.0617 310.218 17.8857C311.697 19.7096 312.453 22.2797 312.486 25.5959L312.289 25.8446H298.09C298.09 27.3369 298.353 28.7132 298.879 29.9734C299.405 31.2004 300.259 32.1952 301.443 32.958C302.626 33.6875 304.187 34.0523 306.126 34.0523C307.046 34.0523 308.032 33.9197 309.084 33.6544C310.136 33.3891 311.237 32.9414 312.387 32.3113H312.535V33.0077C311.746 34.6327 310.547 35.9923 308.936 37.0867C307.326 38.181 305.436 38.7282 303.267 38.7282ZM303.069 17.3882C301.755 17.3882 300.67 17.9354 299.816 19.0298C298.961 20.1241 298.419 21.6496 298.189 23.6062H307.704C307.408 21.318 306.866 19.7096 306.077 18.781C305.288 17.8525 304.286 17.3882 303.069 17.3882ZM320.785 38.4795C319.865 38.4795 319.076 38.1479 318.419 37.4846C317.762 36.7882 317.433 35.9757 317.433 35.0472C317.433 34.1187 317.762 33.3228 318.419 32.6595C319.076 31.9631 319.865 31.6149 320.785 31.6149C321.706 31.6149 322.495 31.9631 323.152 32.6595C323.842 33.3228 324.187 34.1187 324.187 35.0472C324.187 35.9757 323.842 36.7882 323.152 37.4846C322.495 38.1479 321.706 38.4795 320.785 38.4795ZM329.401 38.2308V37.4349L332.605 35.8431V17.9354H328.809V15.6472H332.605V13.9062C332.605 12.6792 333 11.3195 333.788 9.8272C334.61 8.33489 335.728 6.92549 337.141 5.59899C338.587 4.23933 340.23 3.1284 342.071 2.26617C343.944 1.37079 345.949 0.923096 348.085 0.923096C348.907 0.923096 349.647 0.98942 350.304 1.12207C350.961 1.22156 351.52 1.35421 351.98 1.52002C353.065 1.8848 353.607 2.34908 353.607 2.91284C353.607 3.04549 353.591 3.19472 353.558 3.36053C353.525 3.52634 353.459 3.70874 353.361 3.90771L351.832 6.7431H351.339L350.107 6.14617C349.154 5.61557 348.283 5.21763 347.494 4.95233C346.738 4.68703 345.818 4.55438 344.733 4.55438C342.4 4.55438 340.74 5.26737 339.754 6.69335C338.768 8.08617 338.275 10.0262 338.275 12.5134V15.6472H355.924V35.8431L358.882 37.4349V38.2308H347.001V37.4349L350.205 35.8431V17.9354H338.275V35.8928L341.972 37.4349V38.2308H329.401Z" fill="#A53625"/>
</svg>
