<svg width="36" height="36" viewBox="0 0 36 36" fill="none" xmlns="http://www.w3.org/2000/svg">
<path d="M35.628 24.3059L32.0359 19.5655L27.3764 23.2312L28.3701 24.4532L30.9464 22.3479L30.8139 23.695C29.4963 29.6279 24.4541 34.0151 18.5874 34.3684V12.9921H22.2531V11.461H18.5874V6.78682C20.0596 6.43349 21.1858 5.07907 21.1858 3.43758C21.1858 1.52372 19.6547 0 17.8218 0C15.9889 0 14.4579 1.53108 14.4579 3.43758C14.4579 5.07171 15.5841 6.43349 17.0563 6.78682V11.461H13.3905V12.9921H17.0563V34.3684C11.1896 34.0151 6.14732 29.6279 4.8297 23.695L4.73401 22.3774L7.27355 24.4605L8.26728 23.2386L3.60778 19.5728L0.015625 24.3133L1.23755 25.2334L3.24709 22.5908L3.37223 23.9379V24.0115C4.8297 30.8719 10.9467 35.9216 17.8218 35.9216C24.697 35.9216 30.8139 30.8719 32.2641 23.9968L32.426 22.6203L34.4061 25.2187L35.628 24.3059ZM15.9889 3.44494C15.9889 2.3776 16.8281 1.53108 17.8218 1.53108C18.8156 1.53108 19.6547 2.37023 19.6547 3.44494C19.6547 4.51228 18.8156 5.35879 17.8218 5.35879C16.8281 5.35143 15.9889 4.51228 15.9889 3.44494Z" fill="white"/>
</svg>
